<svg id="Layer_1" data-name="Layer 1" xmlns="http://www.w3.org/2000/svg" xmlns:xlink="http://www.w3.org/1999/xlink" viewBox="0 0 405 200"><defs><style>.cls-1{fill:url(#linear-gradient);}.cls-2{fill:#1a1d3e;}</style><linearGradient id="linear-gradient" x1="169.75" y1="-0.83" x2="206.24" y2="39.46" gradientUnits="userSpaceOnUse"><stop offset="0" stop-color="#c42e92"/><stop offset="0.05" stop-color="#be3099"/><stop offset="0.34" stop-color="#9a39c1"/><stop offset="0.6" stop-color="#8040de"/><stop offset="0.83" stop-color="#7145f0"/><stop offset="1" stop-color="#6b46f6"/></linearGradient></defs><polygon class="cls-1" points="193.39 5.06 193.39 43.17 156.78 5.06 193.39 5.06"/><path class="cls-2" d="M193.39,54.54v48.7H156.78V16.43Zm7.27-38.11V54.54l46.8,48.7V16.43Z"/><path class="cls-2" d="M3.55,134.84c0-4.94,4-8.75,10.05-8.75s10,3.55,10,8.49c0,5.2-4,9-10,9S3.55,139.78,3.55,134.84Zm1.82,13.94H21.82v46.94H5.37Z"/><path class="cls-2" d="M80.55,168.87v26.85H64.1V171.56c0-6.76-2.94-9.62-7.71-9.62-5.28,0-9.35,3.3-9.35,11.09v22.69H30.59V148.78H46.26v5.11c3.73-3.9,9-5.89,14.9-5.89C72.15,148,80.55,154.32,80.55,168.87Z"/><path class="cls-2" d="M121.13,193.81c-2.86,1.82-7.1,2.69-11.43,2.69-12,0-19-5.89-19-17.93V162.81H83.81v-12.3h6.84V138.3H107.1v12.21h10.74v12.3H107.1V178.4c0,3.46,2,5.37,4.94,5.37a9,9,0,0,0,5-1.47Z"/><path class="cls-2" d="M172.43,176.41H138.31c1.39,4.76,5.46,7.53,11.52,7.53a15,15,0,0,0,10.82-4.07l8.66,9c-4.5,5-11.08,7.62-20,7.62-16.71,0-27.54-10.31-27.54-24.34s11-24.16,25.81-24.16c13.85,0,25.11,8.84,25.11,24.34C172.69,173.55,172.52,175.11,172.43,176.41Zm-34.38-8.66h19.23a9.29,9.29,0,0,0-9.62-8.06C142.56,159.69,139,162.81,138.05,167.75Z"/><path class="cls-2" d="M209.89,148v14.81a30.54,30.54,0,0,0-3.72-.26c-6.67,0-11.26,3.38-11.26,11.6v21.57H178.45V148.78h15.68v5.63C197.51,150.17,203,148,209.89,148Z"/><path class="cls-2" d="M214.45,131.46H230.9v64.26H214.45Z"/><path class="cls-2" d="M236.68,172.16c0-14.11,11.18-24.16,26.5-24.16,15.51,0,26.5,10.05,26.5,24.16s-11,24.34-26.5,24.34C247.86,196.5,236.68,186.36,236.68,172.16Zm36.38,0c0-7.1-4.25-11.08-9.88-11.08s-9.87,4-9.87,11.08,4.33,11.26,9.87,11.26S273.06,179.35,273.06,172.16Z"/><path class="cls-2" d="M292.62,172.16c0-14.11,11.17-24.16,26.93-24.16,10.65,0,18.79,4.76,22,12.91l-12.73,6.49c-2.25-4.42-5.54-6.32-9.35-6.32-5.72,0-10.22,4-10.22,11.08,0,7.28,4.5,11.26,10.22,11.26,3.81,0,7.1-1.9,9.35-6.32l12.73,6.49c-3.21,8.14-11.35,12.91-22,12.91C303.79,196.5,292.62,186.45,292.62,172.16Z"/><path class="cls-2" d="M367.61,179.26l-4.85,4.94v11.52H346.31V131.46h16.45v33.69l16.8-16.37H399l-19.48,20.09,21.13,26.85H380.77Z"/></svg>