<svg id="Layer_1" data-name="Layer 1" xmlns="http://www.w3.org/2000/svg" xmlns:xlink="http://www.w3.org/1999/xlink" viewBox="0 0 500 76.67"><defs><style>.cls-1{fill:url(#linear-gradient);}.cls-2{fill:#fff;}</style><linearGradient id="linear-gradient" x1="12.26" y1="-2" x2="39.04" y2="27.55" gradientUnits="userSpaceOnUse"><stop offset="0" stop-color="#c42e92"/><stop offset="0.05" stop-color="#be3099"/><stop offset="0.34" stop-color="#9a39c1"/><stop offset="0.6" stop-color="#8040de"/><stop offset="0.83" stop-color="#7145f0"/><stop offset="1" stop-color="#6b46f6"/></linearGradient></defs><polygon class="cls-1" points="29.61 2.32 29.61 30.27 2.75 2.32 29.61 2.32"/><path class="cls-2" d="M29.61,38.61V74.34H2.75V10.65Zm5.33-28v28L69.27,74.34V10.65Z"/><path class="cls-2" d="M118.85,13.46c0-4.71,3.8-8.34,9.58-8.34S138,8.5,138,13.21c0,5-3.8,8.6-9.59,8.6S118.85,18.17,118.85,13.46Zm1.73,13.3h15.7V71.54h-15.7Z"/><path class="cls-2" d="M192.32,45.93V71.54h-15.7V48.49c0-6.44-2.81-9.17-7.35-9.17-5,0-8.93,3.14-8.93,10.58V71.54h-15.7V26.76h15v4.88A19.22,19.22,0,0,1,173.81,26C184.3,26,192.32,32.05,192.32,45.93Z"/><path class="cls-2" d="M231,69.73c-2.73,1.73-6.78,2.56-10.91,2.56-11.48,0-18.17-5.62-18.17-17.11v-15h-6.53V28.42H202V16.77h15.69V28.42h10.25V40.15H217.64V55c0,3.3,1.9,5.12,4.71,5.12a8.61,8.61,0,0,0,4.8-1.4Z"/><path class="cls-2" d="M280,53.12H247.42c1.32,4.54,5.21,7.19,11,7.19a14.34,14.34,0,0,0,10.33-3.89L277,65c-4.3,4.79-10.58,7.27-19.09,7.27-15.94,0-26.27-9.84-26.27-23.22s10.49-23,24.62-23c13.22,0,24,8.43,24,23.22C280.22,50.39,280.06,51.88,280,53.12Zm-32.8-8.26h18.35a8.86,8.86,0,0,0-9.18-7.69C251.47,37.17,248.08,40.15,247.17,44.86Z"/><path class="cls-2" d="M315.71,26V40.15a27.72,27.72,0,0,0-3.55-.25c-6.36,0-10.74,3.22-10.74,11.07V71.54h-15.7V26.76h14.95v5.37C303.9,28.08,309.1,26,315.71,26Z"/><path class="cls-2" d="M320.06,10.24h15.7v61.3h-15.7Z"/><path class="cls-2" d="M341.28,49.07c0-13.47,10.65-23,25.28-23,14.79,0,25.28,9.58,25.28,23.05s-10.49,23.22-25.28,23.22C351.93,72.29,341.28,62.62,341.28,49.07Zm34.7,0c0-6.77-4.05-10.58-9.42-10.58s-9.42,3.81-9.42,10.58,4.13,10.74,9.42,10.74S376,55.93,376,49.07Z"/><path class="cls-2" d="M394.64,49.07c0-13.47,10.66-23,25.7-23,10.16,0,17.93,4.54,21,12.31l-12.14,6.2c-2.15-4.22-5.29-6-8.92-6-5.46,0-9.75,3.81-9.75,10.58,0,6.94,4.29,10.74,9.75,10.74,3.63,0,6.77-1.82,8.92-6L441.32,60c-3.05,7.76-10.82,12.31-21,12.31C405.3,72.29,394.64,62.7,394.64,49.07Z"/><path class="cls-2" d="M466.19,55.85l-4.63,4.7v11h-15.7V10.24h15.7V42.38l16-15.62h18.59L477.59,45.93l20.16,25.61h-19Z"/></svg>